<svg xmlns="http://www.w3.org/2000/svg" xmlns:xlink="http://www.w3.org/1999/xlink" viewBox="0 0 726.29 203.11"><defs><style>.cls-1{fill:url(#linear-gradient);}.cls-2{fill:url(#linear-gradient-2);}.cls-3{fill:url(#linear-gradient-3);}.cls-4{fill:url(#linear-gradient-4);}.cls-5{fill:url(#linear-gradient-5);}.cls-6{fill:url(#linear-gradient-6);}.cls-7{fill:url(#linear-gradient-7);}.cls-8{fill:url(#linear-gradient-8);}.cls-9{fill:url(#linear-gradient-9);}.cls-10{fill:url(#linear-gradient-10);}.cls-11{fill:url(#linear-gradient-11);}.cls-12{fill:url(#linear-gradient-12);}</style><linearGradient id="linear-gradient" x1="67.48" y1="113.75" x2="67.48" y2="0.62" gradientUnits="userSpaceOnUse"><stop offset="0.2" stop-color="#ff5391"/><stop offset="0.24" stop-color="#ff598e"/><stop offset="0.68" stop-color="#ff9671"/><stop offset="0.82" stop-color="#ffae68"/><stop offset="1" stop-color="#ffc75f"/></linearGradient><linearGradient id="linear-gradient-2" x1="189.12" y1="115.3" x2="189.12" y2="38.85" xlink:href="#linear-gradient"/><linearGradient id="linear-gradient-3" x1="304.65" x2="304.65" y2="38.85" xlink:href="#linear-gradient"/><linearGradient id="linear-gradient-4" x1="403.38" x2="403.38" y2="0" xlink:href="#linear-gradient"/><linearGradient id="linear-gradient-5" x1="481.15" x2="481.15" y2="38.85" xlink:href="#linear-gradient"/><linearGradient id="linear-gradient-6" x1="557.06" x2="557.06" y2="0" xlink:href="#linear-gradient"/><linearGradient id="linear-gradient-7" x1="211.63" y1="202.33" x2="211.63" y2="85.95" gradientUnits="userSpaceOnUse"><stop offset="0" stop-color="#8448c2"/><stop offset="0.29" stop-color="#d65db1"/><stop offset="0.51" stop-color="#ff5191"/></linearGradient><linearGradient id="linear-gradient-8" x1="326.08" y1="202.02" x2="326.08" y2="125.57" xlink:href="#linear-gradient-7"/><linearGradient id="linear-gradient-9" x1="419.09" y1="200.48" x2="419.09" y2="125.57" xlink:href="#linear-gradient-7"/><linearGradient id="linear-gradient-10" x1="510.48" y1="202.02" x2="510.48" y2="125.57" xlink:href="#linear-gradient-7"/><linearGradient id="linear-gradient-11" x1="589.64" y1="203.11" x2="589.64" y2="124.02" xlink:href="#linear-gradient-7"/><linearGradient id="linear-gradient-12" x1="675.07" y1="200.48" x2="675.07" y2="87.65" xlink:href="#linear-gradient-7"/></defs><title>dams_name</title><g id="Layer_2" data-name="Layer 2"><g id="Layer_1-2" data-name="Layer 1"><path class="cls-1" d="M.46,113.75v-2.48c1.34,0,2.89-.07,4.65-.23s3.74-.36,6-.62a7.85,7.85,0,0,0,5.1-2.32c1.19-1.29,1.94-3.58,2.25-6.89l.31-7.11V20.74l-.31-7.12c-.31-3.3-1.09-5.62-2.32-7a8.39,8.39,0,0,0-5.19-2.48,55,55,0,0,0-6-.54C3.07,3.59,1.44,3.51,0,3.41V.93L57.73.62A164.55,164.55,0,0,1,91.85,4q16,3.41,29.56,17.34T135,60.67Q135,85,122.8,96.49t-25.69,14.4a153.47,153.47,0,0,1-31.49,2.86ZM73.2,5.42a22.05,22.05,0,0,0-6.73-1.24q-4.56-.31-7.82-.31H56.8V110.81c.72,0,1.39,0,2,.08s1.39.07,2.32.07a68.45,68.45,0,0,0,10.76-.77,20.41,20.41,0,0,0,9.13-4q4.24-3.17,8.2-16.86a101.07,101.07,0,0,0,4-28.09q0-20.11-4.88-36T73.2,5.42Z"/><path class="cls-2" d="M224,106.17c2.44,0,4.15-1.53,5.11-4.59a36.48,36.48,0,0,0,1.45-11h2.17q0,13.65-4.88,18t-8.74,5.51a34.93,34.93,0,0,1-9.9,1.17,21.06,21.06,0,0,1-11.84-3.41,13.64,13.64,0,0,1-6.27-9.14,17.76,17.76,0,0,1-8.28,9.41q-5.81,3.14-15.09,3.14-9.9,0-16.09-5.43t-6.2-15q0-7.76,3.87-12.49t7.9-5.81a78.57,78.57,0,0,1,12.38-1.86,87.44,87.44,0,0,0,12.3-1.79,18.76,18.76,0,0,0,5.65-2.17,4.44,4.44,0,0,0,1.7-3.95l-.15-14.12q0-6-1.53-8.68c-1-1.76-3.17-2.64-6.44-2.64a9,9,0,0,0-5.13,1.4A4.2,4.2,0,0,0,174,46.3q0,1.71,3.3,4.27c2.2,1.72,3.3,4.28,3.3,7.7q0,4.83-4.27,8.56t-13.9,3.73a15.26,15.26,0,0,1-9.23-2.88,9,9,0,0,1-4-7.69q0-9.65,10.78-15.39t25.67-5.75a51.51,51.51,0,0,1,23.11,5.2q10.55,5.22,10.55,16.09V95.75a24.47,24.47,0,0,0,.91,7.62A3.55,3.55,0,0,0,224,106.17Zm-34.76-4.65V72l-.46-.16a12.49,12.49,0,0,1-5.13,3.48,16.28,16.28,0,0,0-5.2,3.18q-1.46,1.55-2.29,6a47.47,47.47,0,0,0-.85,9,46.78,46.78,0,0,0,1.07,11.15q1.08,4.18,4.9,4.18a6.93,6.93,0,0,0,5.13-2.32A10.69,10.69,0,0,0,189.27,101.52Z"/><path class="cls-3" d="M376.84,113.75H330.17v-2.48c3.58,0,5.7-.56,6.37-1.7s1-3.81,1-8l.15-7.11V63.14l-.15-6.34q0-6.66-1.62-9.6t-5.75-2.94a9.61,9.61,0,0,0-5.91,2.56q-3.13,2.55-4.22,10V94.41l.16,7.11a33.63,33.63,0,0,0,.53,7.12c.36,1.45,2.33,2.32,5.91,2.63v2.48h-44v-2.48c3.47,0,5.57-.56,6.29-1.7s1.07-3.81,1.07-8l.16-7.11V63.14L290,56.8q0-6.66-1.61-9.6t-5.75-2.94q-5.22,0-7.14,3.41a35.2,35.2,0,0,0-3,7V94.41l.16,7.11a33,33,0,0,0,.53,7.12c.36,1.45,2.33,2.32,5.91,2.63v2.48H232.76v-2.48l3.4-.15c3-.31,4.8-1,5.42-2.17s.93-3.61.93-7.43l.15-7.11v-37l-.15-6.35a26,26,0,0,0-.93-5.57Q241,43.64,236,43.18l-3.56-.31V40.39h39.46V52a23.77,23.77,0,0,1,5.5-8.74q4.09-4.41,16.63-4.41a30.15,30.15,0,0,1,15.09,3.63,22,22,0,0,1,9.52,10.91,45.21,45.21,0,0,1,4.1-8.66q3.33-5.88,18.81-5.88a29.33,29.33,0,0,1,18.26,5.88q7.74,5.88,7.74,15.16V94.41l.15,7.11c0,3.93.28,6.4.85,7.43s2.4,1.76,5.5,2.17l2.78.15Z"/><path class="cls-4" d="M428.84,113.75h-50.3v-2.48l3.71-.15c3-.31,4.8-1,5.42-2.17s.93-3.61.93-7.43l.16-7.11v-37l-.16-6.35a25.5,25.5,0,0,0-.92-5.57q-.63-1.86-5.58-2.32l-4.17-.31V40.39h40.7v54l.15,7.11q0,5.58.93,7.36c.62,1.18,2.42,1.93,5.42,2.24l3.71.15Zm-40.55-99.2a13.72,13.72,0,0,1,4.44-10.29A14.81,14.81,0,0,1,403.38,0a15.35,15.35,0,0,1,10.81,4.1,13.61,13.61,0,0,1,4.44,10.45A13.88,13.88,0,0,1,414.19,25a15,15,0,0,1-10.81,4.26A14.81,14.81,0,0,1,392.73,25,13.88,13.88,0,0,1,388.29,14.55Z"/><path class="cls-5" d="M491.21,62.83l-.16-6.34q0-12.08-8.44-12.07c-3.58,0-6.12,1.13-7.6,3.4a37,37,0,0,0-3.61,7V94.41l.16,7.11q0,6.36,1.15,8c.76,1.14,3,1.7,6.83,1.7v2.48H431.32v-2.48l3.71-.15q4.49-.47,5.42-2.17t.93-7.43l.15-7.11v-37l-.15-6.35a26,26,0,0,0-.93-5.57q-.61-1.86-5.57-2.32l-3.56-.31V40.39h39.46V52a26.48,26.48,0,0,1,6.11-8.74q4.42-4.41,17.11-4.41A30.28,30.28,0,0,1,513,45q8,6.18,8.05,14.54V94.41l.15,7.11q0,5.58.93,7.36t5.42,2.24l3.4.15v2.48H483.07v-2.48q5.54,0,6.76-1.78t1.22-8l.16-7.11Z"/><path class="cls-6" d="M582.52,113.75H532.21v-2.48l3.72-.15q4.49-.47,5.42-2.17t.93-7.43l.16-7.11v-37l-.16-6.35a26,26,0,0,0-.93-5.57q-.61-1.86-5.57-2.32l-4.18-.31V40.39h40.7v54l.16,7.11q0,5.58.93,7.36t5.41,2.24l3.72.15ZM542,14.55A13.75,13.75,0,0,1,546.4,4.26,14.84,14.84,0,0,1,557.06,0a15.35,15.35,0,0,1,10.81,4.1,13.6,13.6,0,0,1,4.43,10.45A13.87,13.87,0,0,1,567.87,25a15,15,0,0,1-10.81,4.26A14.84,14.84,0,0,1,546.4,25,13.9,13.9,0,0,1,542,14.55Z"/><path class="cls-7" d="M188.81,141.82q0,24.45,4.79,40.63t16.72,16.17c3.92,0,6.91-.78,9-2.32a9.76,9.76,0,0,0,3.87-5.19,30.26,30.26,0,0,0,.93-6.73c.1-2.58.16-5.78.16-9.6v-6a55.26,55.26,0,0,0-.47-9c-.31-3.4-1-5.72-2.09-7a7.81,7.81,0,0,0-5-2.32,57.5,57.5,0,0,0-6.19-.54c-1.85,0-3.56-.13-5.1-.24v-2.47h72.42v2.47l-7.11.47q-4.8.47-6.43,2.24t-2.09,7l-.31,7.28V187l.31,13.93h-2.32a21.16,21.16,0,0,0-7-8.2A18.18,18.18,0,0,0,241.74,189q-5.43,0-15.48,6.66t-26.62,6.65q-22.9,0-38.53-16.56t-15.64-41.63q0-26.31,17.18-42.25T206.45,86A60.84,60.84,0,0,1,234,92.45q13,6.49,14.54,6.81,4.5,0,6-3.33a49.28,49.28,0,0,0,2.94-9.51h3.1v50H258q-4.65-19.19-15.4-32.5T215.12,90.59q-13.32,0-19.81,15.4T188.81,141.82Z"/><path class="cls-8" d="M361,192.89q3.66,0,5.12-4.59a36.75,36.75,0,0,0,1.45-11h2.16q0,13.66-4.87,18t-8.75,5.51a35.34,35.34,0,0,1-9.9,1.16,21,21,0,0,1-11.84-3.41,13.64,13.64,0,0,1-6.27-9.14,17.76,17.76,0,0,1-8.28,9.41Q314,202,304.72,202q-9.9,0-16.09-5.42t-6.19-15q0-7.76,3.87-12.48c2.57-3.16,5.21-5.09,7.89-5.82a81,81,0,0,1,12.38-1.86,87.77,87.77,0,0,0,12.3-1.78,18.88,18.88,0,0,0,5.65-2.18,4.41,4.41,0,0,0,1.7-4l-.15-14.11c0-4-.51-6.93-1.53-8.68s-3.17-2.64-6.43-2.64a8.91,8.91,0,0,0-5.14,1.4,4.17,4.17,0,0,0-2.07,3.57q0,1.71,3.3,4.28t3.3,7.7q0,4.81-4.27,8.55t-13.89,3.73a15.35,15.35,0,0,1-9.24-2.87,9.06,9.06,0,0,1-4-7.7q0-9.63,10.78-15.39t25.67-5.75a51.48,51.48,0,0,1,23.11,5.21q10.55,5.21,10.55,16.09v35.6a24.47,24.47,0,0,0,.91,7.62A3.56,3.56,0,0,0,361,192.89Zm-34.76-4.64V158.68l-.45-.15a12.59,12.59,0,0,1-5.13,3.48,16.18,16.18,0,0,0-5.21,3.17q-1.45,1.55-2.29,6a48.32,48.32,0,0,0-.84,9.06,46.18,46.18,0,0,0,1.07,11.14q1.06,4.18,4.9,4.18a6.89,6.89,0,0,0,5.12-2.32A10.62,10.62,0,0,0,326.23,188.25Z"/><path class="cls-9" d="M429.15,149.56l-.15-6.35q0-12.06-8.45-12.07c-3.58,0-6.12,1.14-7.6,3.41a37.21,37.21,0,0,0-3.61,7v39.62l.16,7.12q0,6.34,1.15,8.05t6.83,1.7v2.48H369.26V198l3.71-.16q4.48-.47,5.42-2.16c.62-1.14.93-3.61.93-7.43l.15-7.12v-37l-.15-6.34a25.78,25.78,0,0,0-.93-5.57c-.42-1.24-2.27-2-5.57-2.33l-3.56-.31v-2.47h39.46v11.61a26.36,26.36,0,0,1,6.11-8.75c2.95-2.94,8.64-4.41,17.11-4.41a30.34,30.34,0,0,1,19,6.19q8,6.19,8,14.55v34.82l.15,7.12c0,3.71.31,6.17.93,7.35s2.43,1.93,5.42,2.24l3.4.16v2.48H421V198q5.53,0,6.76-1.78c.81-1.19,1.23-3.84,1.23-8l.15-7.12Z"/><path class="cls-10" d="M549.71,177.26a37.22,37.22,0,0,1-14,18.19Q526.14,202,513.11,202q-18.3,0-30.08-10.13T471.25,163.8q0-16.73,12.17-27.47t29.23-10.76q17.83,0,27.29,10.06t9.46,24.61H501.89a79.34,79.34,0,0,0,.84,11.37A43.39,43.39,0,0,0,506,182.83a21.77,21.77,0,0,0,6.76,8.75,17.63,17.63,0,0,0,11,3.32q9.49,0,15-5.34a35,35,0,0,0,8.49-13.38Zm-27.39-20.12q-.17-1.69-.24-4c-.05-1.55-.07-3.51-.07-5.88q0-9.45-2.3-14.32t-8-4.87a6.87,6.87,0,0,0-6.84,4.72q-1.92,4.72-2.68,14.47l-.31,9.9Z"/><path class="cls-11" d="M557.76,168.44h2q4,12.54,8.05,18.42a30.19,30.19,0,0,0,8.74,8.82,21.4,21.4,0,0,0,11.53,2.94,10.81,10.81,0,0,0,6.66-2.09,6.86,6.86,0,0,0,2.78-5.8c0-3.2-.72-5.58-2.17-7.12a30.06,30.06,0,0,0-6.81-5q-4.63-2.72-10.75-6a76.74,76.74,0,0,1-10.22-6.5,23.57,23.57,0,0,1-6.34-7.2,18.67,18.67,0,0,1-2.24-9.28q0-11.46,8.66-17.72t21.2-6.27A28.92,28.92,0,0,1,600,127.74q5.1,2.63,10.37,5.1c1.44,0,2.68-.87,3.71-2.63a12,12,0,0,0,1.55-6.19h2.16v31.11h-2c-.83-2.48-1.85-5.21-3.09-8.2a41.06,41.06,0,0,0-5.34-9.06,29.47,29.47,0,0,0-7.35-7,18.09,18.09,0,0,0-9.91-2.47,11.16,11.16,0,0,0-7,2.09,6.3,6.3,0,0,0-2.71,5.18,7.71,7.71,0,0,0,1.94,5.57,28.12,28.12,0,0,0,5.65,4.26q3.7,2.23,10.13,5.72t11.53,6.89a30.67,30.67,0,0,1,8.51,8.44A20.05,20.05,0,0,1,621.52,178q0,11.92-9.06,18t-21.89,6a32.14,32.14,0,0,1-13-2.78q-6.2-3.11-12.23-6.35c-1.34,0-2.53,1.09-3.56,3.25a20.05,20.05,0,0,0-1.86,7h-2.16Z"/><path class="cls-12" d="M666.09,138.57a22.61,22.61,0,0,1,8.14-9.59q5.24-3.41,14.92-3.41a32.19,32.19,0,0,1,19,5.8q8.25,5.81,8.26,14.94v34.82l.15,7.12c0,3.71.31,6.17.93,7.35s2.42,1.93,5.42,2.24l3.4.16v2.48H678.38V198l2-.16c2.76,0,4.45-.61,5.06-1.85s.92-3.82.92-7.74l.16-7.12V149.56l-.16-6.35c0-4.33-.72-7.43-2.15-9.28s-3.58-2.79-6.45-2.79q-5.22,0-7.44,3.41a37.21,37.21,0,0,0-3.61,7v39.62l.15,7.12c0,4,.28,6.63.85,7.81s2.27,1.78,5.14,1.78l2,.16v2.48H626.78V198l3.56-.16q4.49-.47,5.42-2.16c.62-1.14.92-3.61.92-7.43l.16-7.12V104.68l-.16-6.35c0-2.78-.44-4.72-1.31-5.8s-2.76-1.78-5.65-2.09l-5.88-.31V87.65h42.87v36.68c0,3.41-.06,6.27-.16,8.59S666.29,137.13,666.09,138.57Z"/></g></g></svg>