<svg xmlns="http://www.w3.org/2000/svg" xmlns:xlink="http://www.w3.org/1999/xlink" viewBox="0 0 450 552"><defs><style>.cls-1{fill:none;stroke:#1b1464;stroke-miterlimit:10;stroke-width:9px;}.cls-2{fill:#1b1464;}.cls-3{fill:url(#linear-gradient);}</style><linearGradient id="linear-gradient" x1="89.83" y1="247.58" x2="115.26" y2="247.58" gradientUnits="userSpaceOnUse"><stop offset="0" stop-color="#8448c2"/><stop offset="0.29" stop-color="#d65db1"/><stop offset="0.51" stop-color="#ff5191"/></linearGradient></defs><title>dams_animation</title><g id="face"><path class="cls-1" d="M113.62,332.33c-6.8,4.26-8.18,7.88-8.27,10.33-.28,8.28,20.14,12.53,61,30.3,5,2.19,14.25,11,26.84,15.14,10.6,3.5,15.9,5.25,21.68,6.19,17.91,2.91,32.62-1.4,45.44-5.16,6.19-1.82,14.1-5.37,29.95-12.39,18.79-8.33,28.19-12.49,34.08-16.53,10.12-6.93,18.4-15.94,28.92-33,16.79-27.31,35.8-58.24,41.31-98.11,7.67-55.48-9.42-138.21-70.23-175.57-35.64-21.9-72-19.41-144.58-14.46-35,2.4-25,18.82-35.11,25.82-27.37,18.94-38.71,44.25-45.44,81.59-5.17,28.63,4.56,53.38-18.59,75.39"/><path class="cls-2" d="M424.47,475.88l-4.13-12.39c-2-3.45-4.8-14-7.75-24.27-3.79-13.19,1.93-25.26,9.3-40.28,10.4-21.21,15.52-19.6,21.17-34.6,1.74-4.64,2.74-11.49,4.13-44.4.63-14.94,1.34-32-1-49.58C443,247.09,436.09,235,425.5,209.43c-20.63-49.81-12.64-48-27.88-81.58-20.2-44.49-44.37-70-66.1-92.95C304.27,6.13,290.43.07,277.82-.21c-11-.24-31.67,3.67-34.08,4.13C232.64,6,227.33,7.8,215.86,9.08c-12.56,1.42-17.83.6-23.76,1-22.3,1.65-38.8,20-50.6,33-11.21,12.44-19,27.74-34.08,57.84C90,135.73,81.29,153.1,78.5,168.12a275,275,0,0,0-4.13,60.94c1.17,17.67,3.85,26.32-2.06,36.14-7.47,12.4-25.18,20.93-37.18,16.53-8.86-3.25-18.37-12.48-19.62-11.37a4.39,4.39,0,0,0-.52,1.55A6.22,6.22,0,0,0,15,274a52.59,52.59,0,0,0,1,6.2,21.8,21.8,0,0,0,9.08,11.17,34.73,34.73,0,0,0,14,8.68c.16.05.77.24,1.68.49-3.43,2.29-8.68,4.46-16.46,5.47-11.87,1.55-17.17-3.58-17-2.58s3.1,9.3,11.36,12.4c.83.3,1.63.56,2.43.79l-.36.24a35.18,35.18,0,0,0,17.56,3.1c.27,0,1.74-.18,3.76-.54a84.47,84.47,0,0,1-8.41,4.15c-14,6.18-18.43,3.41-24.79,9.3-7,6.49-8,15.75-8.26,18.58-1.63,15.83,9,26.59,10.33,27.89,2.08,2,13.21,12.39,22.72,9.29,5.14-1.67,5.87-6,12.39-7.23,1.42-.26,6.83-1.08,11.36,2.07,4.2,2.91,5.35,7.64,6.2,11.36,2.93,12.85-3.5,16.71,0,23.75C66.23,424,70.41,422.38,79,432a58.9,58.9,0,0,1,6.19,8.26,64,64,0,0,1,8.27,21.69c2.36,12.39.25,19.71,3.09,20.65,1.71.56,3.83-1.61,7.23-5.16,8.16-8.53,8.93-14.28,12.4-14.46,1.61-.08,3.29,1.06,9.29,10.33,7.2,11.11,7,12.89,9.3,15.49,8.6,9.65,32.85,8.91,47.5-3.1,9.89-8.11,12.73-19.16,15.49-29.95a84.17,84.17,0,0,0,1-36.15c-3.84-20.26-14.18-34.16-19.63-41.3-4.66-6.13-5-5.17-20.65-23.76a202.7,202.7,0,0,1-14.46-18.59c-4.07-6-7.36-10.9-10.33-17.55-5.37-12.07-6.86-25.12-7.74-35.63-.37-4.41-33.05-55.77-24.79-73.33,12.06-25.62,17,11.88,17.56,5.17.94-10.85,5.68-11.85,8.26-21.69,1.19-4.56,8.78-17.35,15-29.43,3.64-7.1,7.29-12.41,14.45-22.72C164.16,129.69,168,124.16,174,117c12.24-14.51,19.58-23,32-26.85,9.69-3,16.85-1.45,18.59-1,3,.72,9.07,2.17,13.43,7.23s2.77,9,6.2,16.52c2.9,6.36,6.23,8.23,13.42,15.49,2.73,2.76,12,12.12,18.59,22.72,4.91,7.9,15.42,23,11.36,39.25-1.66,6.62-5,10-5.16,18.59-.07,3.38.33,8.4,7.23,23.75,4.82,10.75,7.77,17.31,13.42,25.82,11.34,17.05,18,17.54,18.59,26.85.24,3.66-.51,5.27-7.23,24.79-7.49,21.78-7.4,22.24-9.29,25.81-2.37,4.46-3.42,5.44-17.56,23.76-9.37,12.14-14.08,18.25-15.49,20.65a91.74,91.74,0,0,0-11.36,33,96.47,96.47,0,0,0,2.06,41.31c6.73,24.51,19.42,30.43,19.63,50.6.19,19-10.91,25-6.2,34.08,6.55,12.7,36.29,17,57.83,6.2,27.55-13.85,31.48-47.33,45.44-45.44,8.57,1.16,13.75,14.66,14.46,16.52,5.69,14.84-1.73,27.78,1,28.92s14.54-10.77,14.46-24.79c0-6.76-2.81-11.72-4.51-15.44,6.07,6.27,20.51,9.6,21.58,9.84a53,53,0,0,0,23-.13c.33.19.56.22.69,0C451.94,512.85,425.62,485.07,424.47,475.88Z"/><path class="cls-2" d="M145.61,196.42c-.47-1.22,16.09-10.72,30.84-17.23A160.64,160.64,0,0,1,196,181.13c2.46.39,9.39,2.14,23.17,5.63,7.38,1.86,11.08,2.84,11.79,4.93,1.29,3.85-3.65,10.33-9,11.16a9.43,9.43,0,0,1-5.11-.78c-8.39-3.41-17.35-5.21-25.92-8.14s-11.83-5.61-17-4.69l-5.42,1.26c-3.6.85-7.4,2.59-11,3.55a32,32,0,0,1-10.84,2.52C146.07,196.59,145.68,196.59,145.61,196.42Z"/><path class="cls-2" d="M348.2,224.26c.82-1-12.16-15-24.29-25.65a162.87,162.87,0,0,0-19.24-4c-2.46-.36-9.61-.76-23.8-1.55-7.59-.42-11.42-.59-12.72,1.19-2.38,3.29.4,10.95,5.28,13.35a9.43,9.43,0,0,0,5.1.77c9-.74,18.12.21,27.17,0s13-1.82,17.67.61l4.79,2.82c3.19,1.89,6.3,4.68,9.43,6.67a31.88,31.88,0,0,0,9.59,5.64C347.71,224.29,348.08,224.4,348.2,224.26Z"/></g><g id="Earphones"><polygon class="cls-3" points="107.52 215.57 115.26 228.94 113.59 241.75 107.6 244.78 102.4 249.16 113.61 275.47 108.24 279.58 95.14 244.24 89.83 230.32 98.39 217.33 107.52 215.57"/></g></svg>